<svg width="47" height="47" viewBox="0 0 47 47" fill="none" xmlns="http://www.w3.org/2000/svg">
<path fill-rule="evenodd" clip-rule="evenodd" d="M9.6377 26.4518H15.093V42.9086H9.6377V26.4518Z" fill="#FF4B00"/>
<path fill-rule="evenodd" clip-rule="evenodd" d="M31.4589 26.4518H36.9142V42.9086H31.4589V26.4518Z" fill="#D03B00"/>
<path fill-rule="evenodd" clip-rule="evenodd" d="M15.093 26.4518H31.4588V42.9086H15.093V26.4518Z" fill="#FFE470"/>
<path fill-rule="evenodd" clip-rule="evenodd" d="M23.2759 26.4518H31.4588V42.9086H23.2759V26.4518Z" fill="#FDBF00"/>
<path fill-rule="evenodd" clip-rule="evenodd" d="M35.5503 8.63109V27.8155H11.0015V8.63109L23.2759 5.90344L35.5503 8.63109Z" fill="#FFE470"/>
<path fill-rule="evenodd" clip-rule="evenodd" d="M35.5503 8.63109V27.8155H23.2759V5.90344L35.5503 8.63109Z" fill="#FDBF00"/>
<path fill-rule="evenodd" clip-rule="evenodd" d="M8.27386 19.487V25.0879L10.3196 27.8156L13.7292 25.0879V15.4503L8.27386 19.487Z" fill="#FF4B00"/>
<path fill-rule="evenodd" clip-rule="evenodd" d="M32.8227 15.4503V25.0879L35.5503 27.8156L38.278 25.0879V19.487L32.8227 15.4503Z" fill="#D03B00"/>
<path fill-rule="evenodd" clip-rule="evenodd" d="M43.7333 26.4517V41.5447L42.3695 44.2723L41.0056 41.5447V26.4517H43.7333Z" fill="#5A5A5A"/>
<path fill-rule="evenodd" clip-rule="evenodd" d="M38.278 26.4517V41.5447L36.9142 44.2723L35.5503 41.5447V26.4517H38.278Z" fill="#5A5A5A"/>
<path fill-rule="evenodd" clip-rule="evenodd" d="M32.8227 26.4517V41.5447L31.4588 44.2723L30.095 41.5447V26.4517H32.8227Z" fill="#5A5A5A"/>
<path fill-rule="evenodd" clip-rule="evenodd" d="M27.3674 26.4517V41.5447L26.0036 44.2723L24.6397 41.5447V26.4517H27.3674Z" fill="#5A5A5A"/>
<path fill-rule="evenodd" clip-rule="evenodd" d="M21.9121 26.4518V41.5447L20.5483 44.2724L19.1844 41.5447V26.4518H21.9121Z" fill="#6E6E6E"/>
<path fill-rule="evenodd" clip-rule="evenodd" d="M16.4568 26.4518V41.5447L15.093 44.2724L13.7292 41.5447V26.4518H16.4568Z" fill="#6E6E6E"/>
<path fill-rule="evenodd" clip-rule="evenodd" d="M11.0015 26.4518V41.5447L9.63768 44.2724L8.27386 41.5447V26.4518H11.0015Z" fill="#6E6E6E"/>
<path fill-rule="evenodd" clip-rule="evenodd" d="M5.54621 26.4518V41.5447L4.18239 44.2724L2.81857 41.5447V26.4518H5.54621Z" fill="#6E6E6E"/>
<path fill-rule="evenodd" clip-rule="evenodd" d="M38.278 15.4502V19.487C36.396 19.3506 34.5683 18.9141 32.8227 18.1779C31.3768 17.605 30.013 16.7867 28.7586 15.8047C26.3037 13.8953 24.4487 11.4404 23.2759 8.65845C21.8847 11.986 19.4846 14.85 16.3204 16.8414C15.4748 17.3596 14.6291 17.8234 13.7292 18.1779C11.9835 18.9415 10.1285 19.3506 8.27386 19.487V15.4502C8.27386 7.64909 14.2747 1.21178 21.9121 0.529871C22.3486 0.475531 22.8124 0.448181 23.2759 0.448181C23.7394 0.448181 24.2032 0.475531 24.6397 0.529871C32.2771 1.21178 38.278 7.6491 38.278 15.4502V15.4502Z" fill="#FF7816"/>
<path fill-rule="evenodd" clip-rule="evenodd" d="M23.2759 8.65847V0.448181C23.7394 0.448181 24.2032 0.475531 24.6397 0.529871C32.2771 1.21178 38.278 7.6491 38.278 15.4502V19.487C36.396 19.3506 34.5683 18.9141 32.8227 18.1779C31.3768 17.605 30.013 16.7867 28.7586 15.8047C26.3037 13.8953 24.4486 11.4405 23.2759 8.65846L23.2759 8.65847Z" fill="#FF4B00"/>
<path fill-rule="evenodd" clip-rule="evenodd" d="M0 25.0879H46.5518V27.8156H0V25.0879Z" fill="#6E6E6E"/>
<path fill-rule="evenodd" clip-rule="evenodd" d="M23.2759 25.0879H46.5518V27.8156H23.2759V25.0879Z" fill="#5A5A5A"/>
<path fill-rule="evenodd" clip-rule="evenodd" d="M0 41.5447H46.5518V47H0V41.5447Z" fill="#ECECF1"/>
<path fill-rule="evenodd" clip-rule="evenodd" d="M23.2759 41.5447H46.5518V47H23.2759V41.5447Z" fill="#D3D3D8"/>
</svg>
