<svg width="46" height="48" viewBox="0 0 46 48" fill="none" xmlns="http://www.w3.org/2000/svg">
<path fill-rule="evenodd" clip-rule="evenodd" d="M10.6505 26.0038C10.531 25.3677 10.5549 24.6946 10.7474 24.0305C11.4033 21.7676 13.7681 20.4652 16.0295 21.1215C16.3975 21.2283 16.7396 21.381 17.0525 21.5707C17.0723 21.4699 17.0959 21.3691 17.125 21.2686C17.6631 19.4118 19.6036 18.3432 21.4591 18.8817C22.592 19.2105 23.4305 20.0629 23.7898 21.0992C24.8472 20.1716 26.3398 19.7856 27.7904 20.2066C29.0868 20.5829 30.0668 21.5216 30.5443 22.6802C31.2558 21.5142 32.6821 20.9187 34.0564 21.3176C34.3225 21.3948 34.5699 21.505 34.7965 21.6418C34.7947 21.2841 34.8427 20.9203 34.9473 20.5593C35.5336 18.5363 37.6477 17.3721 39.6692 17.9588C41.6907 18.5455 42.8542 20.661 42.2679 22.6839C42.2679 22.6839 38.5528 28.4895 24.8576 28.4895C12.7148 28.4895 10.6505 26.0038 10.6505 26.0038Z" fill="#CBF4FF"/>
<path fill-rule="evenodd" clip-rule="evenodd" d="M43.2553 25.7095L40.8349 37.6377C40.103 41.2449 37.1224 43.8374 33.4415 43.8374H29.9112H16.6307H12.4316C8.75061 43.8374 5.77018 41.2449 5.03823 37.6377L2.6178 25.7095C2.6178 25.7095 9.14881 30.2192 22.2974 30.2192C35.446 30.2192 43.2553 25.7095 43.2553 25.7095H43.2553Z" fill="#FCEFDE"/>
<path fill-rule="evenodd" clip-rule="evenodd" d="M38.7608 27.6192L36.7289 37.6378C35.9973 41.245 33.0181 43.8376 29.339 43.8376H29.9173H33.446C37.1252 43.8376 40.1043 41.245 40.8359 37.6378L43.2552 25.7095C43.2552 25.7095 41.682 26.618 38.7608 27.6192Z" fill="#FCE4C6"/>
<path fill-rule="evenodd" clip-rule="evenodd" d="M22.9366 30.6272C14.994 30.6272 7.50213 28.675 1.84104 25.1304C1.1701 24.7103 0.966664 23.8256 1.3866 23.1545C1.65861 22.7199 2.12538 22.4812 2.60275 22.4812C2.86252 22.4812 3.1254 22.5519 3.3618 22.6999C8.75864 26.0791 15.8476 27.7687 22.9366 27.7687C30.0256 27.7687 37.1145 26.0791 42.5114 22.6999C42.7477 22.5519 43.0106 22.4813 43.2703 22.4813C43.7479 22.4813 44.2146 22.7198 44.4866 23.1545C44.9065 23.8256 44.7031 24.7103 44.0321 25.1304C38.371 28.675 30.879 30.6272 22.9366 30.6272H22.9366Z" fill="#E7C33C"/>
<path fill-rule="evenodd" clip-rule="evenodd" d="M20.383 8.52916L11.0527 10.4906C11.0121 10.4992 10.9723 10.4732 10.9638 10.4326C10.5863 8.64155 11.7341 6.88403 13.5273 6.50699L16.5108 5.87982C18.3041 5.50288 20.0636 6.6492 20.4411 8.44018V8.44027C20.4495 8.48092 20.4236 8.52068 20.383 8.52915V8.52916Z" fill="#E7C33C"/>
<path fill-rule="evenodd" clip-rule="evenodd" d="M4.35285 19.0788C3.71902 18.445 3.71902 17.4174 4.35285 16.7835C4.98668 16.1497 6.01432 16.1497 6.64815 16.7835C7.28198 17.4174 7.28197 18.445 6.64815 19.0788C6.01431 19.7127 4.98667 19.7127 4.35285 19.0788Z" fill="#EED05E"/>
<path fill-rule="evenodd" clip-rule="evenodd" d="M13.4389 43.0355L15.4663 41.0077C15.9142 40.5597 16.6403 40.5597 17.0881 41.0077C17.536 41.4556 17.536 42.1819 17.0881 42.6299L14.3576 45.3612C13.3799 46.3391 12.054 46.8885 10.6714 46.8885H6.76496C6.13154 46.8885 5.61815 46.3749 5.61815 45.7413C5.61815 45.1078 6.13164 44.5942 6.76496 44.5942H9.63205H10.0189C11.2379 44.5942 12.4049 44.1005 13.254 43.2258L13.4389 43.0355Z" fill="#E7C33C"/>
<path fill-rule="evenodd" clip-rule="evenodd" d="M32.4406 43.0355L30.4149 41.0077C29.9674 40.5597 29.242 40.5597 28.7945 41.0077C28.347 41.4556 28.347 42.1819 28.7945 42.6299L31.5228 45.3612C32.4996 46.3391 33.8244 46.8885 35.2059 46.8885H39.109C39.7418 46.8885 40.2548 46.3749 40.2548 45.7413C40.2548 45.1078 39.7417 44.5942 39.109 44.5942H36.2443H35.8577C34.6398 44.5942 33.4738 44.1005 32.6254 43.2258L32.4406 43.0355Z" fill="#E7C33C"/>
<path fill-rule="evenodd" clip-rule="evenodd" d="M30.1846 16.3799C30.1846 15.4006 30.9807 14.6067 31.9628 14.6067C32.9448 14.6067 33.7409 15.4006 33.7409 16.3799C33.7409 17.3591 32.9448 18.153 31.9628 18.153C30.9807 18.153 30.1846 17.3591 30.1846 16.3799Z" fill="#CBF4FF"/>
<path fill-rule="evenodd" clip-rule="evenodd" d="M36.4774 12.2805C36.4774 11.555 37.0633 10.9668 37.7861 10.9668C38.509 10.9668 39.0949 11.555 39.0949 12.2805C39.0949 13.0061 38.509 13.5943 37.7861 13.5943C37.0633 13.5943 36.4774 13.0061 36.4774 12.2805Z" fill="#CBF4FF"/>
<path fill-rule="evenodd" clip-rule="evenodd" d="M43.671 24.5482C38.1173 28.0243 30.7542 29.9387 22.9382 29.9387C18.6651 29.9387 14.5508 29.3768 10.7096 28.2684C9.86465 28.0244 9.48379 29.3403 10.3299 29.5844C14.2946 30.7283 18.5367 31.3083 22.9382 31.3083C30.0722 31.3083 36.8547 29.7532 42.3177 26.898L40.1659 37.5025C39.5 40.7841 36.8018 43.088 33.5785 43.1509C33.414 43.0292 30.896 40.5223 30.896 40.5223C29.2038 38.8302 26.61 41.5022 28.3477 43.1539H17.5287C19.2443 41.4851 16.6773 38.8258 14.9804 40.5223C14.9804 40.5223 12.4625 43.0292 12.2978 43.1509C9.0746 43.088 6.37632 40.7841 5.71037 37.5025L3.55859 26.8973C4.56229 27.422 5.61303 27.9063 6.70412 28.3429C7.52054 28.6696 8.03061 27.3985 7.213 27.0713C5.41616 26.3522 3.73135 25.5033 2.20534 24.5482C1.40243 24.0455 2.18014 22.7669 2.99948 23.2796C8.89342 26.9687 16.0494 28.4509 22.9383 28.4509C30.4682 28.4509 37.5492 26.6143 42.877 23.2796C43.6875 22.7724 44.4888 24.0365 43.671 24.5482L43.671 24.5482ZM13.8721 44.8735C13.017 45.7284 11.8803 46.1993 10.671 46.1993H6.7656C6.17015 46.1993 6.17024 45.276 6.7656 45.276H10.0187C11.4143 45.276 12.7722 44.7018 13.7443 43.7008L15.9489 41.4909C16.3755 41.0642 17.0198 41.7259 16.6019 42.1438L13.8721 44.8735ZM11.4013 24.2192C11.9511 22.324 13.9402 21.2291 15.8356 21.7789C16.1368 21.8663 16.4258 21.9931 16.6948 22.1559C16.886 22.2717 17.1216 22.2868 17.3263 22.1965C17.5308 22.1062 17.6783 21.9218 17.7215 21.7023C17.739 21.6135 17.758 21.5338 17.7798 21.4589C18.212 19.969 19.7759 19.1083 21.2659 19.5403C22.1405 19.794 22.8413 20.4606 23.1406 21.3234C23.2153 21.5387 23.3923 21.7027 23.6125 21.761C23.8327 21.8189 24.0675 21.7641 24.2391 21.6139C25.1641 20.803 26.4197 20.5229 27.598 20.8645C28.6489 21.1693 29.4915 21.9258 29.9098 22.94C30.0081 23.1784 30.232 23.3414 30.4893 23.3616C30.746 23.3818 30.993 23.2559 31.1273 23.0358C31.694 22.1079 32.8197 21.6719 33.8648 21.9747C34.0672 22.0334 34.2614 22.1185 34.442 22.2274C34.654 22.3552 34.9186 22.3588 35.134 22.2364C35.3492 22.1142 35.4819 21.8851 35.4806 21.6375C35.479 21.3367 35.5207 21.0381 35.6043 20.7498C35.837 19.9477 36.368 19.2842 37.0997 18.8816C37.8313 18.4789 38.6761 18.3852 39.4783 18.6179C40.2804 18.8506 40.944 19.3816 41.3467 20.1132C41.7405 20.8287 41.8378 21.6522 41.6244 22.4384C36.5743 25.4358 29.968 27.0813 22.9383 27.0813C18.8273 27.0813 14.8612 26.5183 11.2662 25.4517C11.2384 25.0386 11.2834 24.6256 11.4013 24.2192H11.4013ZM4.8369 18.5994C4.47065 18.2331 4.47065 17.6371 4.8369 17.271C5.02007 17.0878 5.26059 16.9962 5.5012 16.9962C5.74181 16.9962 5.98232 17.0878 6.1655 17.271C6.34292 17.4484 6.44063 17.6842 6.44063 17.9352C6.44063 18.1861 6.34293 18.4219 6.1655 18.5994C5.79916 18.9655 5.20307 18.9655 4.83691 18.5994L4.8369 18.5994ZM45.0695 22.7902C44.6797 22.1676 44.0081 21.7958 43.2727 21.7958C43.2153 21.7958 43.1583 21.7988 43.1015 21.8034C43.136 20.9915 42.9487 20.1831 42.5468 19.453C41.9677 18.4009 41.0135 17.6371 39.8599 17.3025C38.7066 16.968 37.4918 17.1028 36.4395 17.6818C35.3873 18.2609 34.6234 19.215 34.289 20.3684C34.2619 20.4619 34.2377 20.5561 34.2168 20.651C32.9504 20.2948 31.6117 20.6295 30.664 21.4758C30.0235 20.5512 29.0849 19.8696 27.9797 19.5491C26.6369 19.1596 25.2218 19.3538 24.0504 20.0614C23.5108 19.1801 22.6571 18.5177 21.6475 18.2249C19.5951 17.6295 17.4485 18.6841 16.6328 20.6041C16.4965 20.5511 16.3579 20.504 16.2173 20.4633C13.5965 19.7033 10.8461 21.217 10.086 23.8376C9.97343 24.2257 9.90978 24.6184 9.89326 25.0126C8.61663 24.5759 7.39258 24.0738 6.23383 23.5074V20.124C6.35089 20.085 6.46567 20.037 6.57643 19.9787L7.24648 20.6488C7.86412 21.2664 8.83513 20.3003 8.21494 19.6803L7.54535 19.0107C7.7183 18.683 7.81025 18.3162 7.81025 17.9351C7.81025 17.554 7.71829 17.1871 7.54535 16.8594L8.21485 16.1899C8.83669 15.5682 7.86905 14.5987 7.24639 15.2215L6.57634 15.8914C6.45069 15.8254 6.32003 15.7723 6.18653 15.731V6.18374C6.18662 3.97982 7.97972 2.18682 10.1837 2.18682C12.2149 2.18682 13.8958 3.71009 14.1472 5.67395L13.313 5.84954C11.1928 6.29587 9.83098 8.38382 10.2772 10.504C10.3191 10.9235 10.679 11.2726 11.1194 11.1801L16.2309 10.1042C17.0914 9.92317 16.8107 8.58325 15.9488 8.76387L11.5623 9.68704C11.5656 8.50546 12.3934 7.44267 13.5951 7.18974L16.7271 6.53056C17.3962 6.38976 18.0799 6.51787 18.6526 6.89143C19.073 7.16555 19.3964 7.54787 19.5944 7.99658L19.3273 8.05283C18.4667 8.23399 18.7475 9.57373 19.6094 9.3932L20.6011 9.18446C21.0413 9.09178 21.2185 8.62435 21.0993 8.22614C20.6529 6.10596 18.5649 4.74403 16.4449 5.19037L15.4915 5.39098C15.1072 2.80648 12.8737 0.817139 10.1837 0.817139C7.22445 0.817139 4.81691 3.22459 4.81691 6.18375V15.7306C4.68295 15.772 4.55192 15.8252 4.42591 15.8914L3.75586 15.2215C3.13421 14.5995 2.16465 15.5673 2.7874 16.1899L3.45736 16.8599C3.10499 17.5306 3.10499 18.3395 3.45736 19.0103L2.7874 19.6803C2.17433 20.2932 3.12882 21.2759 3.75586 20.6487L4.42591 19.9787C4.56671 20.0526 4.71364 20.1107 4.86412 20.1536V22.79C4.4765 22.5735 4.09628 22.3502 3.7261 22.1186C1.40083 20.6637 -0.824821 24.2675 1.47872 25.7093C1.64445 25.813 1.81301 25.9148 1.98231 26.0161L4.36821 37.7749C4.94896 40.6369 6.83191 42.8768 9.31287 43.9063H6.76571C4.4083 43.9063 4.40364 47.569 6.76571 47.569H10.6711C12.2462 47.569 13.7269 46.9556 14.8406 45.842L16.2659 44.4167C16.3719 44.4841 29.7176 44.5236 29.7176 44.5236L31.0361 45.842C32.1497 46.9557 33.6304 47.5691 35.2054 47.5691C36.0847 47.5691 36.086 46.1994 35.2054 46.1994C33.9963 46.1994 32.8595 45.7285 32.0043 44.8735L29.2746 42.1438C28.8661 41.7354 29.5004 41.0639 29.9274 41.4909L32.1319 43.7007C33.1041 44.7018 34.4622 45.276 35.8576 45.276H39.1108C39.7062 45.276 39.7062 46.1993 39.1108 46.1993C38.2315 46.1993 38.2302 47.569 39.1108 47.569C40.1206 47.569 40.9422 46.7475 40.9422 45.7376C40.9422 44.7278 40.1206 43.9063 39.1108 43.9063H36.5636C39.0445 42.8768 40.9275 40.6368 41.5083 37.7749L43.8941 26.0169C44.0634 25.9156 44.2315 25.8132 44.3978 25.7092C45.3877 25.0896 45.6891 23.7802 45.0695 22.7903L45.0695 22.7902Z" fill="black"/>
<path fill-rule="evenodd" clip-rule="evenodd" d="M31.9638 15.2883C32.5658 15.2883 33.0556 15.778 33.0556 16.38C33.0556 16.982 32.5658 17.4716 31.9638 17.4716C31.3618 17.4716 30.8721 16.9819 30.8721 16.38C30.8721 15.7781 31.3618 15.2883 31.9638 15.2883ZM31.9638 18.8413C33.321 18.8413 34.4253 17.7372 34.4253 16.38C34.4253 15.0228 33.321 13.9186 31.9638 13.9186C30.6066 13.9186 29.5023 15.0228 29.5023 16.38C29.5023 17.7373 30.6066 18.8413 31.9638 18.8413Z" fill="black"/>
<path fill-rule="evenodd" clip-rule="evenodd" d="M37.7856 11.6532C38.1315 11.6532 38.4128 11.9346 38.4128 12.2803C38.4128 12.626 38.1315 12.9073 37.7856 12.9073C37.4399 12.9073 37.1586 12.626 37.1586 12.2803C37.1586 11.9346 37.4399 11.6532 37.7856 11.6532ZM37.7856 14.277C38.8867 14.277 39.7825 13.3812 39.7825 12.2803C39.7825 11.1793 38.8867 10.2836 37.7856 10.2836C36.6846 10.2836 35.7889 11.1793 35.7889 12.2803C35.7889 13.3812 36.6847 14.277 37.7856 14.277Z" fill="black"/>
<path fill-rule="evenodd" clip-rule="evenodd" d="M16.4788 23.1804C16.2726 23.0562 16.051 22.9593 15.8202 22.8927C15.1159 22.6893 14.3737 22.7713 13.7309 23.1234C13.0882 23.4756 12.6217 24.0558 12.4174 24.7575C12.3117 25.1199 12.5213 25.499 12.8854 25.6042C12.9493 25.6226 13.0135 25.6314 13.0768 25.6314C13.3745 25.6314 13.6487 25.4371 13.7358 25.1382C13.9467 24.4138 14.7104 23.9955 15.4379 24.2055C15.5534 24.2389 15.6645 24.2875 15.768 24.3498C16.0924 24.5452 16.5145 24.4418 16.7107 24.119C16.9069 23.796 16.803 23.3758 16.4788 23.1804Z" fill="black"/>
<path fill-rule="evenodd" clip-rule="evenodd" d="M26.4081 23.3947C26.6676 23.2516 26.9944 23.3469 27.137 23.6065C27.1596 23.6477 27.177 23.692 27.1883 23.7383C27.2651 24.0507 27.5445 24.2598 27.852 24.2598C27.906 24.2598 27.961 24.2534 28.0159 24.2398C28.3827 24.1494 28.6069 23.7783 28.5167 23.4109C28.4768 23.2483 28.4159 23.0918 28.3355 22.9457C27.8292 22.0242 26.6688 21.6871 25.7486 22.1941C25.4176 22.3766 25.297 22.7932 25.4791 23.1247C25.6611 23.4562 26.0772 23.577 26.4081 23.3947L26.4081 23.3947Z" fill="black"/>
</svg>
