<svg width="51" height="43" viewBox="0 0 51 43" fill="none" xmlns="http://www.w3.org/2000/svg">
<path fill-rule="evenodd" clip-rule="evenodd" d="M3.39999 8.14999H47.6V31.1H3.39999V8.14999Z" fill="#ED539D"/>
<path fill-rule="evenodd" clip-rule="evenodd" d="M47.6 3.90001V8.15001H42.5V3.90001C42.5 2.49168 43.6417 1.35001 45.05 1.35001C46.4583 1.35001 47.6 2.49168 47.6 3.90001Z" fill="#B39A7C"/>
<path fill-rule="evenodd" clip-rule="evenodd" d="M8.49999 3.90001V8.15001H3.39999V3.90001C3.39999 2.49168 4.54166 1.35001 5.94999 1.35001C7.35832 1.35001 8.49999 2.49168 8.49999 3.90001Z" fill="#B39A7C"/>
<path fill-rule="evenodd" clip-rule="evenodd" d="M48.45 37.05V42.15H45.9L44.2 37.05H48.45Z" fill="#B39A7C"/>
<path fill-rule="evenodd" clip-rule="evenodd" d="M6.8 37.05L5.1 42.15H2.55V37.05H6.8Z" fill="#B39A7C"/>
<path fill-rule="evenodd" clip-rule="evenodd" d="M0.849998 30.25H50.15V37.05H0.849998V30.25Z" fill="#FFDA44"/>
<path fill-rule="evenodd" clip-rule="evenodd" d="M42.5 16.65V21.75H27.2V16.65C27.2028 15.7123 27.9623 14.9528 28.9 14.95H40.8C41.7377 14.9528 42.4972 15.7123 42.5 16.65Z" fill="#D8D7DA"/>
<path fill-rule="evenodd" clip-rule="evenodd" d="M23.8 16.65V21.75H8.5V16.65C8.5028 15.7123 9.26228 14.9528 10.2 14.95H22.1C23.0377 14.9528 23.7972 15.7123 23.8 16.65Z" fill="#D8D7DA"/>
<path fill-rule="evenodd" clip-rule="evenodd" d="M48.45 26.85V30.25H2.54996V26.85C2.54595 25.8483 2.842 24.8684 3.39996 24.0365C4.34174 22.6079 5.93884 21.7486 7.64997 21.75H43.35C45.0611 21.7486 46.6582 22.6079 47.6 24.0365C48.158 24.8684 48.454 25.8483 48.45 26.85L48.45 26.85Z" fill="#5AAAE7"/>
<path fill-rule="evenodd" clip-rule="evenodd" d="M49.3 36.2H1.7V31.1H49.3V36.2ZM47.6 41.3H46.512L45.3815 37.9H47.6V41.3ZM4.488 41.3H3.4V37.9H5.6185L4.488 41.3ZM3.4 26.85C3.4 24.5028 5.30279 22.6 7.65 22.6H43.35C45.6972 22.6 47.6 24.5028 47.6 26.85V29.4H3.4V26.85ZM22.95 16.65V20.9H9.35V16.65C9.35 16.1806 9.73056 15.8 10.2 15.8H22.1C22.5694 15.8 22.95 16.1806 22.95 16.65ZM41.65 16.65V20.9H28.05V16.65C28.05 16.1806 28.4306 15.8 28.9 15.8H40.8C41.2694 15.8 41.65 16.1806 41.65 16.65ZM4.25 9H46.75V21.971C45.7531 21.2743 44.5663 20.9004 43.35 20.9V16.65C43.3458 15.2434 42.2066 14.1042 40.8 14.1H28.9C27.4934 14.1042 26.3542 15.2434 26.35 16.65V20.9H24.65V16.65C24.6458 15.2434 23.5066 14.1042 22.1 14.1H10.2C8.79342 14.1042 7.6542 15.2434 7.65 16.65V20.9C6.43374 20.9004 5.24693 21.2743 4.25 21.971V9ZM4.25 3.9C4.25 2.96112 5.01112 2.2 5.95 2.2C6.88888 2.2 7.65 2.96112 7.65 3.9V7.3H4.25V3.9ZM43.35 3.9C43.35 2.96112 44.1111 2.2 45.05 2.2C45.9889 2.2 46.75 2.96112 46.75 3.9V7.3H43.35V3.9ZM50.15 29.4H49.3V26.85C49.299 25.7745 49.0052 24.7196 48.45 23.7985V3.9C48.45 2.02223 46.9278 0.5 45.05 0.5C43.1722 0.5 41.65 2.02223 41.65 3.9V7.3H9.35001V3.9C9.35001 2.02223 7.82778 0.5 5.95001 0.5C4.07224 0.5 2.55001 2.02223 2.55001 3.9V23.7985C1.99484 24.7196 1.701 25.7745 1.70001 26.85V29.4H0.850008C0.380568 29.4 7.62939e-06 29.7806 7.62939e-06 30.25V37.05C7.62939e-06 37.5194 0.380568 37.9 0.850008 37.9H1.70001V42.15C1.70001 42.6194 2.08057 43 2.55001 43H5.10001C5.46427 42.9973 5.78753 42.766 5.90751 42.422L7.41201 37.9H43.588L45.0925 42.422C45.2125 42.766 45.5357 42.9973 45.9 43H48.45C48.9194 43 49.3 42.6194 49.3 42.15V37.9H50.15C50.6194 37.9 51 37.5194 51 37.05V30.25C51 29.7806 50.6194 29.4 50.15 29.4H50.15Z" fill="black"/>
</svg>
