<svg width="48" height="49" viewBox="0 0 48 49" fill="none" xmlns="http://www.w3.org/2000/svg">
<path fill-rule="evenodd" clip-rule="evenodd" d="M35.8999 16.9135V7.31352H41.4V16.9135H35.8999Z" fill="#F05540"/>
<path fill-rule="evenodd" clip-rule="evenodd" d="M33.7999 7.61353V2.41347H43.5V7.61353H33.7999Z" fill="#F3705A"/>
<path fill-rule="evenodd" clip-rule="evenodd" d="M4.2 26.3135V48.4135H43.3999V26.3135C35.7 18.6135 31.3999 14.3135 23.7999 6.71348V6.71348C16.2 14.4134 11.9 18.7135 4.2 26.3135Z" fill="#FFD15C"/>
<path fill-rule="evenodd" clip-rule="evenodd" d="M43.5 26.3135C35.8 18.6135 31.5 14.3135 23.9 6.71348C20 10.5134 17 13.5134 14 16.5134C11 19.5134 7.99997 22.5134 4.2 26.3134V30.8133C11.9 23.1134 16.2 18.8134 23.8 11.2134C31.5 18.9133 35.8 23.2133 43.4001 30.8133V31.4133V31.4133V26.3134H43.5V26.3135Z" fill="#F7B64C"/>
<path fill-rule="evenodd" clip-rule="evenodd" d="M20.3 48.4135H8.50006V36.8136C8.50006 33.5136 11.2 30.9136 14.4 30.9136V30.9136C17.7 30.9136 20.3 33.6136 20.3 36.8136V48.4135Z" fill="#415A6B"/>
<path fill-rule="evenodd" clip-rule="evenodd" d="M23.8001 44.4135V30.9135H39.2001V44.4135H23.8001Z" fill="#344A5E"/>
<path fill-rule="evenodd" clip-rule="evenodd" d="M25.3999 42.8135V32.5135H30.6999V42.8135H25.3999Z" fill="#8AD7F8"/>
<path fill-rule="evenodd" clip-rule="evenodd" d="M32.2999 42.8135V32.5135H37.5999V42.8135H32.2999Z" fill="#8AD7F8"/>
<path fill-rule="evenodd" clip-rule="evenodd" d="M47.1 22.2134L26.2 1.3135C25 0.113498 22.9 0.113498 21.7 1.3135L0.9 22.2134C-0.3 23.4134 -0.3 25.5134 0.9 26.7134C2.1 27.9134 4.2 27.9134 5.4 26.7134L24 8.11346L42.6 26.7134C43.8 27.9134 45.9 27.9134 47.1 26.7134C48.3 25.4135 48.3 23.4134 47.1 22.2134Z" fill="#F3705A"/>
</svg>
