<svg width="46" height="46" viewBox="0 0 46 46" fill="none" xmlns="http://www.w3.org/2000/svg">
<path fill-rule="evenodd" clip-rule="evenodd" d="M10.9318 24.2104H34.37V30.4686H10.9318V24.2104Z" fill="#4D6378"/>
<path fill-rule="evenodd" clip-rule="evenodd" d="M27.3386 30.461V24.2104H17.9633V30.461H10.9318V40.6182H34.37V30.461H27.3386Z" fill="#42566B"/>
<path fill-rule="evenodd" clip-rule="evenodd" d="M45.3059 45.3107H34.3741V24.2193H45.3059V45.3107Z" fill="#F6BB00"/>
<path fill-rule="evenodd" clip-rule="evenodd" d="M0 0H10.9318V17.9623H0V0Z" fill="#F6BB00"/>
<path fill-rule="evenodd" clip-rule="evenodd" d="M0 24.2104H10.9318V45.3018H0V24.2104Z" fill="#F6BB00"/>
<path fill-rule="evenodd" clip-rule="evenodd" d="M41.4004 26.5572H42.9651V29.6863H41.4004V26.5572Z" fill="#EDA600"/>
<path fill-rule="evenodd" clip-rule="evenodd" d="M45.3059 17.9661H34.3741V0.00386429H45.3059V17.9661Z" fill="#F6BB00"/>
<path fill-rule="evenodd" clip-rule="evenodd" d="M14.0609 14.8432H31.2409V17.9622H14.0609V14.8432Z" fill="#42566B"/>
<path fill-rule="evenodd" clip-rule="evenodd" d="M31.2409 14.8432L28.1173 11.7141H17.1845L14.0609 14.8432H31.2409Z" fill="#4D6378"/>
<path fill-rule="evenodd" clip-rule="evenodd" d="M20.3091 26.5572H24.9927V28.1218H20.3091V26.5572Z" fill="#02C26A"/>
<path fill-rule="evenodd" clip-rule="evenodd" d="M12 27C12 26.4477 12.4477 26 13 26C13.5523 26 14 26.4477 14 27C14 27.5523 13.5523 28 13 28C12.4477 28 12 27.5523 12 27Z" fill="#42566B"/>
<path fill-rule="evenodd" clip-rule="evenodd" d="M15 27C15 26.4477 15.2239 26 15.5 26C15.7761 26 16 26.4477 16 27C16 27.5523 15.7761 28 15.5 28C15.2239 28 15 27.5523 15 27Z" fill="#42566B"/>
<path fill-rule="evenodd" clip-rule="evenodd" d="M29 27C29 26.4477 29.2239 26 29.5 26C29.7761 26 30 26.4477 30 27C30 27.5523 29.7761 28 29.5 28C29.2239 28 29 27.5523 29 27Z" fill="#42566B"/>
<path fill-rule="evenodd" clip-rule="evenodd" d="M31 27C31 26.4477 31.4477 26 32 26C32.5523 26 33 26.4477 33 27C33 27.5523 32.5523 28 32 28C31.4477 28 31 27.5523 31 27Z" fill="#42566B"/>
<path fill-rule="evenodd" clip-rule="evenodd" d="M14.0609 33.5877H31.2409V37.4991H14.0609V33.5877Z" fill="#84D8E8"/>
<path fill-rule="evenodd" clip-rule="evenodd" d="M10.9318 40.6182H34.37V45.3018H10.9318V40.6182Z" fill="#EDA600"/>
<path fill-rule="evenodd" clip-rule="evenodd" d="M10.9318 0H22.6559V11.7141H10.9318V0Z" fill="#EDA600"/>
<path fill-rule="evenodd" clip-rule="evenodd" d="M18.7445 6.24817H20.3091V9.37726H18.7445V6.24817Z" fill="#CF8300"/>
<path fill-rule="evenodd" clip-rule="evenodd" d="M2.3468 12.4963H3.90138V15.6254H2.3468V12.4963Z" fill="#EDA600"/>
<path fill-rule="evenodd" clip-rule="evenodd" d="M2.3468 26.5572H3.90138V29.6863H2.3468V26.5572Z" fill="#EDA600"/>
<path fill-rule="evenodd" clip-rule="evenodd" d="M34.367 11.717L22.653 11.717V0.00296021L34.367 0.00296021V11.717Z" fill="#DE9400"/>
<path fill-rule="evenodd" clip-rule="evenodd" d="M24.9927 6.24817H26.5573V9.37726H24.9927V6.24817Z" fill="#CF8300"/>
<path fill-rule="evenodd" clip-rule="evenodd" d="M41.4004 12.4963H42.9651V15.6254H41.4004V12.4963Z" fill="#EDA600"/>
</svg>
