<svg width="139" height="120" viewBox="0 0 139 120" fill="none" xmlns="http://www.w3.org/2000/svg">
<path fill-rule="evenodd" clip-rule="evenodd" d="M30.3341 53.6143H109.388C112.702 53.6143 113.594 55.938 115.388 59.6146L139 114C139 117.314 136.314 120 133 120H6C2.68629 120 0 117.314 0 114L24.3341 59.6146C25.837 56.2345 27.0204 53.6143 30.3341 53.6143Z" fill="white"/>
<path fill-rule="evenodd" clip-rule="evenodd" d="M67 98V-4H72V98H67Z" fill="white"/>
<path opacity="0.15" fill-rule="evenodd" clip-rule="evenodd" d="M124.331 111.695C123.314 112.126 122.14 111.652 121.709 110.635L100.609 60.9278C100.178 59.9111 100.652 58.7369 101.669 58.3054V58.3054C102.686 57.8738 103.86 58.3481 104.291 59.3649L125.391 109.072C125.822 110.089 125.348 111.263 124.331 111.695V111.695Z" fill="#568BD0"/>
</svg>
