<svg width="56" height="46" viewBox="0 0 56 46" fill="none" xmlns="http://www.w3.org/2000/svg">
<path fill-rule="evenodd" clip-rule="evenodd" d="M54.7609 34.9331V33.1054C54.7609 32.7864 54.4998 32.5254 54.1807 32.5254H46.8421C46.523 32.5254 46.2619 32.7864 46.2619 33.1054V34.9331H54.7609Z" fill="#9CE8FF"/>
<path fill-rule="evenodd" clip-rule="evenodd" d="M45.0228 41.9718V44.7424C45.0228 45.0621 45.2835 45.3238 45.602 45.3238H46.6452C46.9638 45.3238 47.2244 45.0621 47.2244 44.7424V41.9718H45.0228Z" fill="#FFAF68"/>
<path fill-rule="evenodd" clip-rule="evenodd" d="M53.7984 44.7424C53.7984 45.0621 54.0591 45.3238 54.3776 45.3238H55.4209C55.7393 45.3238 56.0001 45.0621 56.0001 44.7424V41.9718H53.7986V44.7424H53.7984Z" fill="#FFAF68"/>
<path fill-rule="evenodd" clip-rule="evenodd" d="M45.0217 42.3347V39.4993H55.9976V42.3347H45.0217Z" fill="#CB7C52"/>
<path fill-rule="evenodd" clip-rule="evenodd" d="M55.4096 34.5819H45.6128C45.2882 34.5819 45.0226 34.8476 45.0226 35.1724V39.8707H55.9998V35.1724C55.9998 34.8475 55.7343 34.5819 55.4096 34.5819H55.4096Z" fill="#AB5436"/>
<path fill-rule="evenodd" clip-rule="evenodd" d="M51.6307 38.4653H49.392C48.9262 38.4653 48.5487 38.0871 48.5487 37.6205C48.5487 37.1537 48.9262 36.7757 49.392 36.7757H51.6307C52.0967 36.7757 52.474 37.1537 52.474 37.6205C52.474 38.0871 52.0967 38.4653 51.6307 38.4653Z" fill="#CB7C52"/>
<path fill-rule="evenodd" clip-rule="evenodd" d="M5.39771 43.0407V19.3813C5.39771 18.9282 5.0304 18.561 4.57709 18.561C4.12378 18.561 3.75647 18.9282 3.75647 19.3813V43.0407H5.39771Z" fill="#08375E"/>
<path fill-rule="evenodd" clip-rule="evenodd" d="M8.42371 42.6714H1.4208C1.11081 42.6714 0.857171 42.9253 0.857171 43.2356V44.7656C0.857171 45.0758 1.11081 45.3298 1.4208 45.3298H8.42371V42.6714Z" fill="#63C3EA"/>
<g opacity="0.1">
<path fill-rule="evenodd" clip-rule="evenodd" d="M3.32153 44.7658V43.2357C3.32153 42.9255 3.57485 42.6716 3.88457 42.6716H1.42032C1.11059 42.6716 0.857172 42.9255 0.857172 43.2357V44.7658C0.857172 45.076 1.11059 45.33 1.42032 45.33H3.88457C3.57485 45.33 3.32153 45.076 3.32153 44.7658Z" fill="#231F20"/>
</g>
<path fill-rule="evenodd" clip-rule="evenodd" d="M9.15438 20.3324C9.15438 20.6423 8.90093 20.8958 8.59116 20.8958H0.563107C0.253452 20.8958 0 20.6423 0 20.3324V10.1015C0 9.79141 0.253452 9.53788 0.563107 9.53788H8.59105C8.90082 9.53788 9.15427 9.7914 9.15427 10.1015L9.15438 20.3324Z" fill="#FF9F3D"/>
<path opacity="0.1" fill-rule="evenodd" clip-rule="evenodd" d="M2.41913 20.3324V10.1015C2.41913 9.79141 2.67232 9.53788 2.98176 9.53788H0.562513C0.253185 9.53788 0 9.7914 0 10.1015V20.3324C0 20.6423 0.253185 20.8958 0.562513 20.8958H2.98187C2.67243 20.8958 2.41913 20.6423 2.41913 20.3324Z" fill="#231F20"/>
<path fill-rule="evenodd" clip-rule="evenodd" d="M39.9159 24.5258H12.8272C12.2074 24.5258 11.7003 25.0331 11.7003 25.6531V37.0579H41.0426V25.653C41.0426 25.033 40.5357 24.5258 39.9159 24.5258Z" fill="#FFBB4A"/>
<path opacity="0.1" fill-rule="evenodd" clip-rule="evenodd" d="M14.7972 24.5258H12.8284C12.208 24.5258 11.7003 25.0331 11.7003 25.6531V37.0579H13.6692V25.653C13.6692 25.033 14.1768 24.5258 14.7972 24.5258Z" fill="#231F20"/>
<path fill-rule="evenodd" clip-rule="evenodd" d="M25.5508 37.0581V24.5269H27.1921V37.0581H25.5508Z" fill="#FF9F3D"/>
<path fill-rule="evenodd" clip-rule="evenodd" d="M22.3686 36.494C22.3686 36.804 22.1148 37.0577 21.8045 37.0577H16.7348C16.4245 37.0577 16.1707 36.804 16.1707 36.494V31.4249C16.1707 31.115 16.4245 30.8614 16.7348 30.8614H21.8045C22.1148 30.8614 22.3686 31.115 22.3686 31.4249V36.494Z" fill="#3EAF91"/>
<path fill-rule="evenodd" clip-rule="evenodd" d="M37.0396 36.494C37.0396 36.804 36.7858 37.0577 36.4755 37.0577H31.4056C31.0953 37.0577 30.8414 36.804 30.8414 36.494V31.4249C30.8414 31.115 31.0953 30.8614 31.4056 30.8614H36.4755C36.7858 30.8614 37.0396 31.115 37.0396 31.4249V36.494Z" fill="#3EAF91"/>
<path fill-rule="evenodd" clip-rule="evenodd" d="M11.7006 42.4384V36.6346H41.0424V42.4384H11.7006Z" fill="#FF9F3D"/>
<path fill-rule="evenodd" clip-rule="evenodd" d="M11.5888 32.4031H8.84194C8.21237 32.4031 7.69727 32.9192 7.69727 33.5498V44.75C7.69727 45.0654 7.95471 45.3236 8.26949 45.3236H12.161C12.4758 45.3236 12.7334 45.0654 12.7334 44.75V33.5498C12.7335 32.9192 12.2183 32.4031 11.5888 32.4031Z" fill="#FCC96C"/>
<path opacity="0.1" fill-rule="evenodd" clip-rule="evenodd" d="M10.1118 44.7502V33.5501C10.1118 32.9193 10.6267 32.4033 11.2562 32.4033H8.84177C8.21231 32.4033 7.69731 32.9194 7.69731 33.5501V44.7502C7.69731 45.0657 7.95471 45.3238 8.26942 45.3238H10.6838C10.3692 45.3238 10.1118 45.0655 10.1118 44.7502Z" fill="#231F20"/>
<path fill-rule="evenodd" clip-rule="evenodd" d="M43.911 32.4031H41.1641C40.5345 32.4031 40.0195 32.9192 40.0195 33.5498V44.75C40.0195 45.0654 40.2771 45.3236 40.5919 45.3236H44.4835C44.7981 45.3236 45.0557 45.0654 45.0557 44.75V33.5498C45.0557 32.9192 44.5406 32.4031 43.911 32.4031Z" fill="#FCC96C"/>
<path opacity="0.1" fill-rule="evenodd" clip-rule="evenodd" d="M41.8581 44.7502V33.5501C41.8581 32.9193 42.3722 32.4033 43.0006 32.4033H41.1622C40.5338 32.4033 40.0197 32.9194 40.0197 33.5501V44.7502C40.0197 45.0657 40.2768 45.3238 40.591 45.3238H42.4293C42.1151 45.3238 41.8581 45.0655 41.8581 44.7502Z" fill="#231F20"/>
<path fill-rule="evenodd" clip-rule="evenodd" d="M39.0419 3.59688H13.7112C13.3826 3.59688 13.1138 3.86584 13.1138 4.19462V18.1796C13.1138 18.5084 13.3826 18.7773 13.7112 18.7773H39.0419C39.3706 18.7773 39.6394 18.5084 39.6394 18.1796V4.19462C39.6394 3.86584 39.3706 3.59688 39.0419 3.59688Z" fill="#AB5436"/>
<path fill-rule="evenodd" clip-rule="evenodd" d="M15.8298 16.3857C15.6494 16.3857 15.5017 16.2381 15.5017 16.0576V6.31639C15.5017 6.13594 15.6494 5.98831 15.8298 5.98831H36.9136C37.094 5.98831 37.2417 6.13594 37.2417 6.31639V16.0576C37.2417 16.2381 37.094 16.3857 36.9136 16.3857H15.8298Z" fill="#B1E8FF"/>
<path fill-rule="evenodd" clip-rule="evenodd" d="M45.3327 24.511C45.2009 24.511 45.0847 24.4248 45.0461 24.298C44.5756 22.7736 44.2522 22.4474 42.7412 21.9726C42.6156 21.9331 42.5302 21.816 42.5302 21.683C42.5302 21.5506 42.6156 21.4332 42.7412 21.3937C44.2522 20.9191 44.5756 20.5931 45.0461 19.0682C45.0848 18.9418 45.2009 18.8553 45.3327 18.8553C45.4644 18.8553 45.5804 18.9418 45.6196 19.0682C46.0903 20.5931 46.4129 20.9191 47.924 21.3937C48.0496 21.4332 48.135 21.5506 48.135 21.683C48.135 21.8161 48.0498 21.9331 47.924 21.9726C46.4129 22.4474 46.0903 22.7736 45.6196 24.298C45.5804 24.4248 45.4644 24.511 45.3327 24.511Z" fill="#FFBB4A"/>
<path fill-rule="evenodd" clip-rule="evenodd" d="M49.4677 12.4585C49.3221 12.4585 49.1938 12.363 49.1509 12.2222C48.6307 10.5314 48.2732 10.1697 46.6022 9.64301C46.4633 9.59937 46.3689 9.46962 46.3689 9.32204C46.3689 9.17524 46.4633 9.04494 46.6022 9.00117C48.2731 8.47486 48.6307 8.11319 49.1509 6.42191C49.1938 6.28165 49.3221 6.18584 49.4677 6.18584C49.6136 6.18584 49.7417 6.28165 49.7849 6.42191C50.3057 8.11319 50.6625 8.47486 52.3335 9.00117C52.4724 9.04482 52.5668 9.17524 52.5668 9.32204C52.5668 9.46962 52.4724 9.59926 52.3335 9.64301C50.6626 10.1697 50.3057 10.5314 49.7849 12.2222C49.7417 12.363 49.6136 12.4585 49.4677 12.4585Z" fill="#FFBB4A"/>
<path fill-rule="evenodd" clip-rule="evenodd" d="M7.82693 5.68609C7.71806 5.68609 7.6221 5.61458 7.58994 5.50945C7.20096 4.24457 6.93376 3.97396 5.68433 3.58004C5.58071 3.54751 5.51002 3.45027 5.51002 3.33988C5.51002 3.23015 5.58071 3.13257 5.68433 3.10005C6.93377 2.70624 7.20096 2.43596 7.58994 1.17065C7.6221 1.06584 7.71806 0.994222 7.82693 0.994222C7.93581 0.994222 8.03165 1.06584 8.06415 1.17065C8.45335 2.43597 8.7201 2.70624 9.96933 3.10005C10.0732 3.13269 10.1436 3.23015 10.1436 3.33988C10.1436 3.45038 10.0732 3.54751 9.96933 3.58004C8.72011 3.97407 8.45335 4.24457 8.06415 5.50945C8.03165 5.61447 7.93581 5.68609 7.82693 5.68609Z" fill="#FFBB4A"/>
<path fill-rule="evenodd" clip-rule="evenodd" d="M32.9792 10.9591L29.4336 16.3857H36.915L33.3692 10.9591C33.262 10.7951 33.0863 10.7951 32.9792 10.9591Z" fill="#86D5B5"/>
<path fill-rule="evenodd" clip-rule="evenodd" d="M26.141 8.30116L20.8577 16.3857H31.8142L26.5309 8.30116C26.4236 8.13713 26.2482 8.13713 26.141 8.30116Z" fill="#3EAF91"/>
<path fill-rule="evenodd" clip-rule="evenodd" d="M19.4619 10.8373L15.8377 16.3857H23.4756L19.8517 10.8373C19.7445 10.6732 19.5692 10.6732 19.4619 10.8373H19.4619Z" fill="#86D5B5"/>
<path opacity="0.1" fill-rule="evenodd" clip-rule="evenodd" d="M15.8303 5.98831C15.6496 5.98831 15.5017 6.13594 15.5017 6.31639V16.0576C15.5017 16.2381 15.6496 16.3857 15.8303 16.3857H17.4071V5.98831H15.8303Z" fill="#231F20"/>
<path fill-rule="evenodd" clip-rule="evenodd" d="M54.7609 31.9589C54.7609 32.2782 54.4998 32.5395 54.1807 32.5395H46.8421C46.523 32.5395 46.2619 32.2782 46.2619 31.9589V30.6386C46.2619 30.3192 46.523 30.0581 46.8421 30.0581H54.1807C54.4998 30.0581 54.7609 30.3192 54.7609 30.6386V31.9589Z" fill="#63C3EA"/>
</svg>
